<svg xmlns="http://www.w3.org/2000/svg" version="1.1" xmlns:xlink="http://www.w3.org/1999/xlink" viewBox="0 0 200 200" width="200" height="200"><metadata><rdf:RDF xmlns:rdf="http://www.w3.org/1999/02/22-rdf-syntax-ns#" xmlns:dc="http://purl.org/dc/elements/1.1/"><rdf:Description><dc:creator>RealFaviconGenerator</dc:creator><dc:source>https://realfavicongenerator.net</dc:source></rdf:Description></rdf:RDF></metadata><rect width="200" height="200" fill="url('#gradient')"></rect><defs><linearGradient id="gradient" gradientTransform="rotate(45 0.5 0.5)"><stop offset="0%" stop-color="#000000"></stop><stop offset="100%" stop-color="#000000"></stop></linearGradient></defs><g><g fill="#ffffff" transform="matrix(5.662672811059908,0,0,5.662672811059908,5.293166812608874,140.23766541151406)" stroke="#ffffff" stroke-width="0"><path d="M10.74-8.40L10.74-5.81Q10.74-2.93 9.45-1.37Q8.15 0.20 5.80 0.20L5.80 0.20Q3.43 0.20 2.13-1.38Q0.83-2.95 0.83-5.81L0.83-5.81L0.83-8.41Q0.83-11.29 2.12-12.85Q3.42-14.41 5.78-14.41Q8.14-14.41 9.44-12.84Q10.74-11.27 10.74-8.40L10.74-8.40ZM7.45-5.31L7.45-8.83Q7.45-10.36 7.05-11.12Q6.65-11.88 5.78-11.88L5.78-11.88Q4.93-11.88 4.55-11.17Q4.16-10.47 4.13-9.04L4.13-9.04L4.13-5.41Q4.13-3.82 4.53-3.08Q4.93-2.34 5.80-2.34L5.80-2.34Q6.64-2.34 7.04-3.06Q7.44-3.78 7.45-5.31L7.45-5.31ZM15.30-10.57L16.79-7.66L18.32-10.57L21.74-10.57L18.96-5.42L21.88 0L18.44 0L16.78-3.13L15.15 0L11.69 0L14.62-5.42L11.85-10.57L15.30-10.57ZM32.62-8.40L32.62-5.81Q32.62-2.93 31.32-1.37Q30.03 0.20 27.68 0.20L27.68 0.20Q25.30 0.20 24.00-1.38Q22.71-2.95 22.71-5.81L22.71-5.81L22.71-8.41Q22.71-11.29 24.00-12.85Q25.29-14.41 27.66-14.41Q30.02-14.41 31.32-12.84Q32.62-11.27 32.62-8.40L32.62-8.40ZM29.33-5.31L29.33-8.83Q29.33-10.36 28.93-11.12Q28.53-11.88 27.66-11.88L27.66-11.88Q26.81-11.88 26.42-11.17Q26.04-10.47 26.01-9.04L26.01-9.04L26.01-5.41Q26.01-3.82 26.41-3.08Q26.81-2.34 27.68-2.34L27.68-2.34Q28.52-2.34 28.92-3.06Q29.32-3.78 29.33-5.31L29.33-5.31Z"></path></g></g></svg>